<mxfile host="app.diagrams.net" modified="2023-05-20T20:30:00.145Z" agent="Mozilla/5.0 (Windows NT 10.0; Win64; x64) AppleWebKit/537.36 (KHTML, like Gecko) Chrome/113.0.0.0 Safari/537.36 Edg/113.0.1774.50" etag="eVQVIDwbB-qwN2ni3cga" version="21.3.2" type="device">
  <diagram id="C5RBs43oDa-KdzZeNtuy" name="Page-1">
    <mxGraphModel dx="1379" dy="764" grid="1" gridSize="10" guides="1" tooltips="1" connect="1" arrows="1" fold="1" page="1" pageScale="1" pageWidth="827" pageHeight="1169" math="0" shadow="0">
      <root>
        <mxCell id="WIyWlLk6GJQsqaUBKTNV-0" />
        <mxCell id="WIyWlLk6GJQsqaUBKTNV-1" parent="WIyWlLk6GJQsqaUBKTNV-0" />
        <mxCell id="lgbnzPhsW7y1cuDJPa-L-0" value="&lt;span style=&quot;white-space: pre;&quot;&gt;	&lt;/span&gt;&lt;b&gt;Conveyor Line server&lt;/b&gt;" style="verticalAlign=top;align=left;spacingTop=8;spacingLeft=2;spacingRight=12;shape=cube;size=10;direction=south;fontStyle=4;html=1;whiteSpace=wrap;" vertex="1" parent="WIyWlLk6GJQsqaUBKTNV-1">
          <mxGeometry x="190" y="340" width="200" height="320" as="geometry" />
        </mxCell>
        <mxCell id="lgbnzPhsW7y1cuDJPa-L-1" value="(OS - Windows)" style="text;html=1;align=center;verticalAlign=middle;resizable=0;points=[];autosize=1;strokeColor=none;fillColor=none;" vertex="1" parent="WIyWlLk6GJQsqaUBKTNV-1">
          <mxGeometry x="220" y="370" width="110" height="30" as="geometry" />
        </mxCell>
        <mxCell id="lgbnzPhsW7y1cuDJPa-L-2" value="" style="verticalAlign=top;align=left;spacingTop=8;spacingLeft=2;spacingRight=12;shape=cube;size=10;direction=south;fontStyle=4;html=1;whiteSpace=wrap;" vertex="1" parent="WIyWlLk6GJQsqaUBKTNV-1">
          <mxGeometry x="220" y="495" width="140" height="90" as="geometry" />
        </mxCell>
        <mxCell id="lgbnzPhsW7y1cuDJPa-L-3" value="MySQL DB" style="text;html=1;align=center;verticalAlign=middle;resizable=0;points=[];autosize=1;strokeColor=none;fillColor=none;" vertex="1" parent="WIyWlLk6GJQsqaUBKTNV-1">
          <mxGeometry x="240" y="510" width="80" height="30" as="geometry" />
        </mxCell>
        <mxCell id="lgbnzPhsW7y1cuDJPa-L-4" value="&lt;span style=&quot;white-space: pre;&quot;&gt;	&lt;span style=&quot;white-space: pre;&quot;&gt;	&lt;/span&gt;&lt;/span&gt;&lt;b&gt;Accounting Servers&lt;/b&gt;" style="verticalAlign=top;align=left;spacingTop=8;spacingLeft=2;spacingRight=12;shape=cube;size=10;direction=south;fontStyle=4;html=1;whiteSpace=wrap;" vertex="1" parent="WIyWlLk6GJQsqaUBKTNV-1">
          <mxGeometry x="190" y="10" width="230" height="210" as="geometry" />
        </mxCell>
        <mxCell id="lgbnzPhsW7y1cuDJPa-L-5" value="Microsoft Excel" style="rounded=0;whiteSpace=wrap;html=1;" vertex="1" parent="WIyWlLk6GJQsqaUBKTNV-1">
          <mxGeometry x="230" y="50" width="150" height="60" as="geometry" />
        </mxCell>
        <mxCell id="lgbnzPhsW7y1cuDJPa-L-6" value="&lt;span style=&quot;white-space: pre;&quot;&gt;	&lt;/span&gt;MySQL DB" style="verticalAlign=top;align=left;spacingTop=8;spacingLeft=2;spacingRight=12;shape=cube;size=10;direction=south;fontStyle=4;html=1;whiteSpace=wrap;" vertex="1" parent="WIyWlLk6GJQsqaUBKTNV-1">
          <mxGeometry x="230" y="140" width="130" height="70" as="geometry" />
        </mxCell>
        <mxCell id="lgbnzPhsW7y1cuDJPa-L-7" value="" style="endArrow=none;html=1;rounded=0;entryX=0.5;entryY=1;entryDx=0;entryDy=0;exitX=0;exitY=0;exitDx=0;exitDy=60;exitPerimeter=0;" edge="1" parent="WIyWlLk6GJQsqaUBKTNV-1" source="lgbnzPhsW7y1cuDJPa-L-6" target="lgbnzPhsW7y1cuDJPa-L-5">
          <mxGeometry width="50" height="50" relative="1" as="geometry">
            <mxPoint x="90" y="200" as="sourcePoint" />
            <mxPoint x="140" y="150" as="targetPoint" />
          </mxGeometry>
        </mxCell>
        <mxCell id="lgbnzPhsW7y1cuDJPa-L-9" value="&lt;span style=&quot;white-space: pre;&quot;&gt;	&lt;/span&gt;Conveyor Line Segment Server" style="verticalAlign=top;align=left;spacingTop=8;spacingLeft=2;spacingRight=12;shape=cube;size=10;direction=south;fontStyle=4;html=1;whiteSpace=wrap;" vertex="1" parent="WIyWlLk6GJQsqaUBKTNV-1">
          <mxGeometry x="500" y="80" width="450" height="190" as="geometry" />
        </mxCell>
        <mxCell id="lgbnzPhsW7y1cuDJPa-L-10" value="" style="endArrow=none;html=1;rounded=0;exitX=0.729;exitY=-0.009;exitDx=0;exitDy=0;exitPerimeter=0;entryX=0;entryY=0;entryDx=100;entryDy=270;entryPerimeter=0;" edge="1" parent="WIyWlLk6GJQsqaUBKTNV-1" source="lgbnzPhsW7y1cuDJPa-L-4" target="lgbnzPhsW7y1cuDJPa-L-9">
          <mxGeometry width="50" height="50" relative="1" as="geometry">
            <mxPoint x="420" y="310" as="sourcePoint" />
            <mxPoint x="470" y="260" as="targetPoint" />
          </mxGeometry>
        </mxCell>
        <mxCell id="lgbnzPhsW7y1cuDJPa-L-11" value="LAN" style="text;html=1;align=center;verticalAlign=middle;resizable=0;points=[];autosize=1;strokeColor=none;fillColor=none;" vertex="1" parent="WIyWlLk6GJQsqaUBKTNV-1">
          <mxGeometry x="440" y="130" width="50" height="30" as="geometry" />
        </mxCell>
        <mxCell id="lgbnzPhsW7y1cuDJPa-L-12" value="LAN" style="text;html=1;align=center;verticalAlign=middle;resizable=0;points=[];autosize=1;strokeColor=none;fillColor=none;" vertex="1" parent="WIyWlLk6GJQsqaUBKTNV-1">
          <mxGeometry x="470" y="310" width="50" height="30" as="geometry" />
        </mxCell>
        <mxCell id="lgbnzPhsW7y1cuDJPa-L-13" value="" style="endArrow=none;html=1;rounded=0;exitX=0.144;exitY=-0.005;exitDx=0;exitDy=0;exitPerimeter=0;entryX=0;entryY=0;entryDx=190;entryDy=140;entryPerimeter=0;" edge="1" parent="WIyWlLk6GJQsqaUBKTNV-1" source="lgbnzPhsW7y1cuDJPa-L-0" target="lgbnzPhsW7y1cuDJPa-L-9">
          <mxGeometry width="50" height="50" relative="1" as="geometry">
            <mxPoint x="480" y="350" as="sourcePoint" />
            <mxPoint x="530" y="300" as="targetPoint" />
          </mxGeometry>
        </mxCell>
        <mxCell id="lgbnzPhsW7y1cuDJPa-L-16" value="" style="endArrow=none;html=1;rounded=0;entryX=0;entryY=0;entryDx=210;entryDy=120;entryPerimeter=0;exitX=0;exitY=0;exitDx=0;exitDy=95;exitPerimeter=0;" edge="1" parent="WIyWlLk6GJQsqaUBKTNV-1" source="lgbnzPhsW7y1cuDJPa-L-0" target="lgbnzPhsW7y1cuDJPa-L-4">
          <mxGeometry width="50" height="50" relative="1" as="geometry">
            <mxPoint x="100" y="270" as="sourcePoint" />
            <mxPoint x="150" y="220" as="targetPoint" />
          </mxGeometry>
        </mxCell>
        <mxCell id="lgbnzPhsW7y1cuDJPa-L-17" value="LAN&lt;br&gt;" style="text;html=1;align=center;verticalAlign=middle;resizable=0;points=[];autosize=1;strokeColor=none;fillColor=none;" vertex="1" parent="WIyWlLk6GJQsqaUBKTNV-1">
          <mxGeometry x="240" y="260" width="50" height="30" as="geometry" />
        </mxCell>
        <mxCell id="lgbnzPhsW7y1cuDJPa-L-18" value="&lt;span style=&quot;white-space: pre;&quot;&gt;	&lt;/span&gt;MySQL DB" style="verticalAlign=top;align=left;spacingTop=8;spacingLeft=2;spacingRight=12;shape=cube;size=10;direction=south;fontStyle=4;html=1;whiteSpace=wrap;" vertex="1" parent="WIyWlLk6GJQsqaUBKTNV-1">
          <mxGeometry x="530" y="200" width="130" height="60" as="geometry" />
        </mxCell>
        <mxCell id="lgbnzPhsW7y1cuDJPa-L-19" value="RepairZonesAnalyzer.exe" style="rounded=0;whiteSpace=wrap;html=1;" vertex="1" parent="WIyWlLk6GJQsqaUBKTNV-1">
          <mxGeometry x="530" y="130" width="190" height="60" as="geometry" />
        </mxCell>
        <mxCell id="lgbnzPhsW7y1cuDJPa-L-20" value="RepairSpotsAnalyzer.exe" style="rounded=0;whiteSpace=wrap;html=1;" vertex="1" parent="WIyWlLk6GJQsqaUBKTNV-1">
          <mxGeometry x="750" y="130" width="150" height="60" as="geometry" />
        </mxCell>
        <mxCell id="lgbnzPhsW7y1cuDJPa-L-21" value="" style="endArrow=none;html=1;rounded=0;exitX=0;exitY=0;exitDx=0;exitDy=60;exitPerimeter=0;entryX=0.368;entryY=1.033;entryDx=0;entryDy=0;entryPerimeter=0;" edge="1" parent="WIyWlLk6GJQsqaUBKTNV-1" source="lgbnzPhsW7y1cuDJPa-L-18" target="lgbnzPhsW7y1cuDJPa-L-19">
          <mxGeometry width="50" height="50" relative="1" as="geometry">
            <mxPoint x="690" y="260" as="sourcePoint" />
            <mxPoint x="740" y="210" as="targetPoint" />
          </mxGeometry>
        </mxCell>
        <mxCell id="lgbnzPhsW7y1cuDJPa-L-22" value="" style="endArrow=none;html=1;rounded=0;exitX=1;exitY=0.5;exitDx=0;exitDy=0;entryX=0;entryY=0.5;entryDx=0;entryDy=0;" edge="1" parent="WIyWlLk6GJQsqaUBKTNV-1" source="lgbnzPhsW7y1cuDJPa-L-19" target="lgbnzPhsW7y1cuDJPa-L-20">
          <mxGeometry width="50" height="50" relative="1" as="geometry">
            <mxPoint x="730" y="270" as="sourcePoint" />
            <mxPoint x="780" y="220" as="targetPoint" />
          </mxGeometry>
        </mxCell>
      </root>
    </mxGraphModel>
  </diagram>
</mxfile>
